<svg width="6213" height="1080" viewBox="0 0 6213 1080" fill="none" xmlns="http://www.w3.org/2000/svg">
<path d="M5894.63 164.922V760.561H5978.86V927.539H5591.57V760.561H5691.76V247.663L5634.44 164.922H5894.63ZM5978.86 563.676V683.8H5349.83V563.676H5978.86ZM5634.44 164.922L5770.52 214.766L5481.92 626.479L5349.83 563.676L5634.44 164.922Z" fill="#DDFFDD"/>
<path d="M4954.15 939.501C4884.36 939.501 4824.72 923.717 4775.2 892.149C4726.02 860.581 4688.31 815.555 4662.06 757.071C4636.14 698.255 4623.18 627.808 4623.18 545.732C4623.18 463.987 4636.14 393.873 4662.06 335.389C4687.98 276.573 4725.69 231.547 4775.2 200.311C4824.72 168.743 4884.36 152.959 4954.15 152.959C5023.93 152.959 5083.41 168.743 5132.59 200.311C5182.1 231.547 5219.81 276.573 5245.73 335.389C5271.99 393.873 5285.11 463.987 5285.11 545.732C5285.11 627.808 5271.99 698.255 5245.73 757.071C5219.81 815.555 5182.1 860.581 5132.59 892.149C5083.41 923.717 5023.93 939.501 4954.15 939.501ZM4954.15 748.099C4995.68 748.099 5026.92 730.488 5047.85 695.264C5069.12 659.709 5079.75 609.698 5079.75 545.233C5079.75 480.768 5069.12 431.256 5047.85 396.697C5026.92 361.806 4995.68 344.361 4954.15 344.361C4912.94 344.361 4881.7 361.806 4860.44 396.697C4839.17 431.256 4828.54 480.768 4828.54 545.233C4828.54 609.698 4839.17 659.709 4860.44 695.264C4881.7 730.488 4912.94 748.099 4954.15 748.099Z" fill="#DDFFDD"/>
<path d="M4299.17 927.539V710.717L4302.16 679.813V605.047L4299.17 514.33V301.495H4213.94V140H4498.55V766.044H4567.33V927.539H4299.17ZM4121.22 352.835C4159.77 352.835 4196.16 361.475 4230.38 378.754C4264.61 396.033 4295.18 422.783 4322.1 459.003C4349.01 495.223 4370.45 541.412 4386.4 597.57L4302.16 645.421C4302.16 621.163 4297.67 599.896 4288.7 581.62C4280.06 563.344 4267.43 549.221 4250.82 539.252C4234.21 529.284 4214.1 524.299 4190.51 524.299C4167.58 524.299 4147.81 529.45 4131.19 539.751C4114.58 549.72 4101.79 563.842 4092.81 582.118C4083.84 600.062 4079.36 621.329 4079.36 645.919C4079.36 670.509 4083.84 691.942 4092.81 710.218C4102.12 728.494 4115.08 742.783 4131.69 753.084C4148.64 763.053 4168.24 768.037 4190.51 768.037C4213.77 768.037 4233.71 763.053 4250.32 753.084C4266.94 742.783 4279.73 728.494 4288.7 710.218C4297.67 691.61 4302.16 670.01 4302.16 645.421L4316.12 764.548H4292.69C4286.38 803.095 4275.91 835.327 4261.29 861.246C4247 887.165 4228.06 906.604 4204.46 919.564C4180.87 932.523 4151.96 939.003 4117.74 939.003C4079.19 939.003 4044.8 931.194 4014.56 915.576C3984.32 899.626 3958.73 878.027 3937.8 850.779C3916.86 823.198 3900.91 791.796 3889.95 756.573C3878.98 721.35 3873.5 684.465 3873.5 645.919C3873.5 584.777 3883.97 532.274 3904.9 488.411C3925.84 444.548 3954.91 410.987 3992.13 387.726C4029.35 364.465 4072.38 352.835 4121.22 352.835Z" fill="#DDFFDD"/>
<path d="M3765.55 766.044H3828.85V927.539H3495.39V766.044H3566.17V525.795H3495.39V364.299H3765.55V766.044ZM3554.71 143.489H3769.04V304.985H3554.71V143.489Z" fill="#DDFFDD"/>
<path d="M3161.19 364.299H3448.79V525.794H3405.93L3230.97 927.539H2995.71L2817.77 525.794H2775.9V364.299H3102.88V525.794H3037.08L3198.58 927.539L3086.43 762.056H3178.14L3069.98 927.539L3227.49 525.794H3161.19V364.299Z" fill="#DDFFDD"/>
<path d="M2598.02 927.539C2572.76 927.539 2553.16 920.395 2539.2 906.106C2525.58 891.485 2518.76 870.883 2518.76 844.299V737.134L2531.22 717.196L2524.25 659.377L2518.76 629.969V582.617C2518.76 566.002 2515.27 552.71 2508.3 542.742C2501.32 532.44 2491.52 524.964 2478.89 520.312C2466.59 515.327 2452.47 512.835 2436.52 512.835C2413.59 512.835 2394.15 517.653 2378.2 527.29C2362.25 536.594 2351.79 552.378 2346.8 574.642L2166.36 550.218C2172.01 509.678 2185.64 474.455 2207.24 444.548C2228.84 414.31 2259.91 391.049 2300.45 374.766C2341.32 358.484 2393.49 350.343 2456.96 350.343C2510.79 350.343 2557.14 356.989 2596.02 370.281C2635.23 383.572 2665.31 405.005 2686.24 434.58C2707.51 464.154 2718.14 503.365 2718.14 552.212V765.545H2776.96V927.539H2598.02ZM2323.37 939.502C2264.56 939.502 2220.36 925.878 2190.79 898.629C2161.21 871.049 2146.43 833.5 2146.43 785.981C2146.43 735.473 2163.21 697.591 2196.77 672.337C2230.66 647.082 2281.34 628.972 2348.79 618.006L2546.68 584.112V662.866L2417.58 687.788C2395.65 691.443 2379.7 698.089 2369.73 707.726C2359.76 717.362 2354.78 729.657 2354.78 744.611C2354.78 760.893 2360.09 773.188 2370.73 781.495C2381.36 789.803 2395.81 793.956 2414.09 793.956C2434.03 793.956 2452.3 789.138 2468.92 779.502C2485.53 769.533 2498.83 754.58 2508.79 734.642C2519.1 714.704 2524.25 689.616 2524.25 659.377L2548.17 776.511H2514.28C2506.97 832.004 2486.7 873.043 2453.47 899.626C2420.24 926.21 2376.87 939.502 2323.37 939.502Z" fill="#DDFFDD"/>
<path d="M1664.93 940V773.021H1731.22C1772.76 773.354 1808.82 764.382 1839.39 746.106C1869.96 727.497 1893.55 701.91 1910.17 669.345C1926.78 636.781 1935.09 599.231 1935.09 556.697C1935.09 514.828 1926.78 477.944 1910.17 446.043C1893.55 413.811 1869.96 388.889 1839.39 371.277C1808.82 353.333 1772.76 344.361 1731.22 344.361H1664.93V177.383H1735.21C1816.96 177.383 1888.73 193.665 1950.54 226.23C2012.35 258.463 2060.36 302.99 2094.59 359.813C2129.15 416.635 2146.43 482.263 2146.43 556.697C2146.43 632.128 2129.15 698.754 2094.59 756.573C2060.36 814.06 2012.35 859.086 1950.54 891.651C1888.73 923.883 1816.96 940 1735.21 940H1664.93ZM1353.9 940V773.021H1429.17V344.361H1353.9V177.383H1701.32V344.361H1632.53V773.021H1701.32V940H1353.9Z" fill="#5B7F2E"/>
<path d="M1353.45 940L986.902 177.383H1206.22L1604.97 940H1353.45ZM865.78 344.361V177.383H1205.72L1154.88 432.087H1106.53V773.021H1180.3V940H865.78V773.021H939.55V344.361H865.78ZM1353.45 344.361V177.383H1645.84V940H1491.33L1427.03 672.835V344.361H1353.45Z" fill="#5B7F2E"/>
<path d="M843 344.361V177.383H1196.4V344.361H1121.63V773.021H1196.4V940H843V773.021H918.265V344.361H843Z" fill="#5B7F2E"/>
<path fill-rule="evenodd" clip-rule="evenodd" d="M763 940H463.114C364.418 940 280.589 924.725 211.628 894.175C142.667 863.377 90.1555 819.415 54.0933 762.29C18.0311 704.915 0 636.489 0 557.01C0 478.027 17.8729 410.222 53.6188 353.593C89.3646 296.715 140.769 253.126 207.832 222.825C274.895 192.275 355.561 177 449.828 177H763V940ZM470.771 857.596H644.735V259.404L457.42 258.963C381.5 258.963 318.075 271.009 267.145 295.101C216.215 318.945 177.938 353.22 152.315 397.927C126.692 442.386 113.881 495.413 113.881 557.01C113.881 619.103 126.85 672.627 152.79 717.582C178.729 762.538 218.113 797.186 270.941 821.526C323.769 845.867 390.422 857.596 470.771 857.596ZM334.957 451.68C334.957 502.247 293.964 543.24 243.397 543.24C192.83 543.24 151.837 502.247 151.837 451.68C151.837 401.113 192.83 360.12 243.397 360.12C293.964 360.12 334.957 401.113 334.957 451.68ZM215.166 558.5H272.391V666.846H272.245C272.243 666.96 272.242 667.074 272.241 667.189C272.239 667.354 272.238 667.52 272.238 667.685C272.238 695.813 294.534 718.616 322.037 718.616C349.539 718.616 371.835 695.813 371.835 667.685C371.835 667.341 371.832 666.998 371.825 666.656H371.836V558.5H438.98V558.585L567.672 690.202V558.5H634.816V787.4H567.672V787.307H567.662L438.98 655.699V667.8H438.872C438.943 669.469 438.979 671.148 438.979 672.835C438.979 736.044 388.877 787.285 327.072 787.285C265.268 787.285 215.166 736.044 215.166 672.835C215.166 670.826 215.217 668.83 215.317 666.846H215.166V558.5Z" fill="#5B7F2E"/>
</svg>
